# xmcd
#
# Track frame offsets:
#	150
#	15741
#	33049
#	47766
#	67618
#	85478
#	100435
#	122593
#	138490
#	154350
#	175489
#	193935
#	208650
#	230934
#	244803
#	262890
#	282100
#	301518
#	316080
#	334612
#
# Disc length: 4642 seconds
#
# Revision: 0
# Processed by: cddbd v1.5.2PL0 Copyright (c) Steve Scherf et al.
# Submitted via: SynApp - FreeCDDB Version: 2.4
#
DISCID=15122014
DTITLE=Leonardo e Leandro - Best Off
DYEAR=2005
DGENRE=Brazilian
TTITLE0=Leandro e Leonardo - Cerveja
TTITLE1=Leonardo and Leandro - Doce misterio
TTITLE2=Leandro e Leonardo - Cumade e cumpade
TTITLE3=leandro e leonardo - Deixaria tudo
TTITLE4=Leandro e Leonardo - Rumo à Goiania
TTITLE5=Leandro e Leonardo - Anarriê
TTITLE6=Leandro e Leonardo - Catedral [Ao Vivo] (Leandro)
TTITLE7=Leandro and Leonardo - Mulher Brasileira
TTITLE8=Leandro y Leonardo - Golpes y besos
TTITLE9=Leandro e Leonardo - abandonado[abandonada]
TTITLE10=Leandro e Leonardo - Amor de novela
TTITLE11=leandro e leonardo - solidao por perto
TTITLE12=Leandro e Leonardo - Aguenta coração
TTITLE13=Leandro e Leonardo - Feliz Aniversário
TTITLE14=Leonardo - QueroColo - angel2
TTITLE15=Leandro e Leonardo - Mano
TTITLE16=Leandro e Leonardo - Talismã
TTITLE17=Leandro e Leonardo - Requebra
TTITLE18=Leandro e Leonardo - Outra Chance
TTITLE19=LEANDRO E LEONARDO - Ave Maria ( Zeze Di Carmago E Luciano and Chitaozinho E  Xororo)
EXTD=
EXTT0=
EXTT1=
EXTT2=
EXTT3=
EXTT4=
EXTT5=
EXTT6=
EXTT7=
EXTT8=
EXTT9=
EXTT10=
EXTT11=
EXTT12=
EXTT13=
EXTT14=
EXTT15=
EXTT16=
EXTT17=
EXTT18=
EXTT19=
PLAYORDER=
